<?xml version="1.0" standalone="no"?>
<!DOCTYPE svg PUBLIC "-//W3C//DTD SVG 20010904//EN"
 "http://www.w3.org/TR/2001/REC-SVG-20010904/DTD/svg10.dtd">
<svg version="1.0" xmlns="http://www.w3.org/2000/svg"
 width="336.000000pt" height="336.000000pt" viewBox="0 0 336.000000 336.000000"
 preserveAspectRatio="xMidYMid meet">
<metadata>
Created by potrace 1.14, written by Peter Selinger 2001-2017
</metadata>
<g transform="translate(0.000000,336.000000) scale(0.100000,-0.100000)"
fill="#000000" stroke="none">
<path d="M1934 2918 c-18 -9 -21 -18 -21 -81 1 -72 1 -72 -26 -69 -21 2 -28
-2 -31 -20 -13 -58 -12 -62 32 -86 l44 -24 -4 -153 c-2 -94 -7 -157 -14 -166
-14 -16 -94 -251 -94 -274 0 -8 -4 -15 -9 -15 -8 0 -12 -12 -27 -70 -7 -29
-35 -103 -55 -144 -11 -22 -22 -56 -25 -75 -3 -19 -17 -59 -30 -89 -13 -30
-24 -60 -24 -66 0 -6 -9 -27 -19 -47 -10 -19 -29 -69 -41 -110 -32 -110 -39
-125 -68 -139 -15 -8 -29 -14 -32 -15 -3 -1 -25 -7 -50 -14 -25 -6 -63 -19
-85 -27 -39 -16 -40 -15 -62 13 -13 15 -23 34 -23 41 0 6 -9 21 -20 32 -20 20
-20 20 -72 -15 -29 -19 -96 -60 -148 -91 -52 -31 -115 -69 -139 -85 -24 -16
-57 -34 -72 -41 -16 -7 -29 -16 -29 -20 0 -5 -6 -8 -12 -8 -13 -1 -87 -53
-184 -129 l-55 -45 -102 28 c-56 15 -110 29 -121 31 -10 2 -28 10 -40 18 -11
7 -27 12 -33 11 -7 -1 -21 -2 -30 -3 -14 -1 -10 -8 17 -31 37 -33 38 -37 25
-150 -11 -96 -10 -86 -20 -150 -4 -30 -9 -83 -10 -116 -1 -34 -6 -67 -9 -73
-4 -6 0 -11 8 -11 9 0 16 8 17 18 0 9 2 43 4 75 2 32 6 75 10 95 12 57 24 174
28 259 3 43 9 47 51 29 20 -8 36 -13 36 -11 0 3 11 0 25 -5 14 -5 37 -12 51
-14 14 -3 50 -12 82 -21 l57 -17 -27 -23 -28 -24 -60 21 c-33 11 -67 17 -76
14 -24 -9 -13 -50 15 -54 20 -3 22 -8 17 -34 -6 -31 -57 -89 -88 -101 -31 -11
-20 -46 28 -91 43 -41 45 -45 40 -87 -3 -25 -1 -50 3 -58 12 -19 26 88 31 234
1 33 4 74 7 92 l5 31 61 -18 c34 -10 85 -25 112 -34 28 -8 61 -17 75 -20 14
-3 68 -17 120 -32 149 -41 136 -41 144 1 4 21 11 45 16 54 5 9 37 73 70 144
33 70 62 127 64 127 3 0 2 -62 0 -137 -3 -76 -6 -177 -7 -225 -1 -49 -6 -88
-10 -88 -4 0 -4 -8 2 -17 5 -9 6 -26 2 -37 -4 -12 -7 -39 -6 -61 3 -56 4 -59
12 -51 7 7 9 31 16 236 9 268 20 460 25 455 3 -2 11 0 19 7 7 6 16 8 20 5 3
-3 17 0 32 7 25 13 263 96 274 96 3 0 -1 -16 -9 -35 -8 -19 -12 -35 -9 -35 2
0 0 -12 -6 -27 -6 -16 -13 -39 -15 -52 -5 -22 -43 -121 -65 -166 -5 -11 -11
-33 -13 -50 -4 -25 -58 -185 -83 -245 -3 -8 -7 -17 -8 -20 -1 -3 -5 -14 -10
-25 -50 -122 -55 -150 -27 -152 13 -1 22 11 31 45 7 26 24 70 36 97 13 28 33
82 45 120 12 39 25 75 30 80 4 6 11 25 15 43 7 32 7 32 68 33 34 1 88 3 119 5
54 3 56 2 52 -19 -3 -12 -9 -44 -13 -72 -5 -27 -14 -75 -19 -105 -6 -30 -13
-68 -16 -85 -3 -16 -9 -46 -15 -65 -6 -19 -11 -50 -11 -67 0 -28 3 -33 25 -33
30 0 40 19 50 90 4 30 9 64 11 75 2 11 6 43 9 70 13 121 30 204 43 217 7 7 45
4 119 -7 59 -10 120 -17 135 -17 16 0 28 -6 30 -16 3 -9 5 -97 6 -196 1 -98 3
-181 6 -183 3 -3 17 -3 31 1 l25 6 -5 155 c-3 85 -2 155 2 155 27 -1 32 -23
39 -163 4 -81 11 -147 16 -147 5 0 6 63 3 139 l-5 139 42 -2 41 -1 4 -130 c6
-176 25 -193 23 -20 -3 171 -3 172 12 157 7 -7 13 -60 15 -139 2 -74 8 -132
14 -138 8 -7 9 30 4 134 l-7 144 43 -8 c24 -4 54 -9 66 -10 13 -1 25 -4 27 -6
3 -3 6 -60 8 -127 2 -67 6 -122 11 -122 4 0 7 8 8 18 0 12 3 10 12 -8 10 -23
11 -21 17 30 3 30 3 82 0 115 -7 85 -4 95 31 95 16 0 29 -6 30 -12 1 -18 5
-110 7 -185 2 -56 4 -61 22 -56 14 4 20 14 21 37 1 53 -1 130 -4 156 -4 31 11
63 25 54 6 -4 20 -8 32 -9 11 -1 24 -3 29 -4 4 0 7 -13 7 -29 0 -80 7 -192 13
-198 4 -4 7 8 8 27 2 64 0 165 -3 179 -2 12 12 16 67 18 39 2 73 6 77 10 18
18 -12 32 -75 34 -74 3 -75 3 -77 78 -1 54 -7 128 -13 190 -3 25 -8 91 -12
147 -6 91 -11 108 -38 150 -37 59 -142 245 -159 284 -7 16 -16 29 -20 29 -6 0
-80 -74 -207 -207 -10 -11 -12 -30 -7 -81 4 -37 9 -119 11 -182 2 -63 7 -155
10 -205 4 -49 8 -105 9 -123 l2 -33 -40 6 c-23 3 -63 8 -89 9 -26 2 -50 5 -51
7 -2 2 -7 129 -10 282 -7 274 -7 278 15 310 12 18 34 43 48 57 14 14 41 42 59
63 17 21 32 35 32 33 0 -7 96 89 112 113 7 10 33 32 57 49 l43 32 71 -123 c39
-67 85 -151 104 -186 19 -35 43 -77 54 -93 12 -16 22 -34 23 -41 1 -7 7 -21
13 -32 6 -11 31 -58 56 -105 89 -170 126 -237 156 -286 17 -27 35 -58 40 -69
11 -25 22 -124 26 -232 3 -91 7 -103 36 -103 19 0 20 5 15 113 -8 187 -6 181
-115 377 -20 36 -43 81 -51 100 -8 19 -16 37 -19 40 -4 3 -47 86 -97 185 -50
99 -128 250 -173 337 l-81 156 37 23 c21 13 40 27 41 31 2 4 8 8 14 8 17 0
156 100 163 118 3 9 -3 24 -15 36 -17 17 -23 19 -38 9 -16 -12 -138 -81 -272
-157 -36 -20 -72 -41 -80 -46 -68 -41 -152 -88 -185 -104 -22 -11 -47 -25 -55
-32 -8 -7 -24 -14 -34 -16 -18 -3 -20 4 -22 87 -1 50 -5 122 -8 160 -6 60 -13
322 -17 625 -2 133 -1 140 19 140 18 0 42 37 42 64 0 7 -15 19 -32 27 l-33 14
-6 110 c-3 61 -6 106 -7 101 -1 -5 -8 -4 -14 2 -9 6 -20 6 -34 0z m37 -635 c5
-29 3 -305 -2 -308 -10 -7 -79 32 -72 39 4 4 8 13 9 21 1 7 5 32 8 55 3 23 8
46 12 51 6 11 9 27 20 102 4 26 11 47 15 47 5 0 10 -3 10 -7z m-45 -35 c-4
-18 -9 -44 -12 -58 -3 -14 -7 -32 -10 -40 -3 -8 -8 -28 -11 -45 -2 -16 -6 -41
-8 -55 -4 -22 -54 -75 -63 -66 -3 4 4 23 52 146 14 36 28 81 31 100 6 35 13
50 22 50 3 0 2 -15 -1 -32z m-76 -421 c-12 -43 -23 -88 -25 -99 -5 -25 -1 -22
-50 -37 -22 -7 -45 -15 -52 -17 -15 -7 -7 27 20 86 12 25 22 50 24 55 16 75
39 120 70 143 l28 21 3 -36 c2 -20 -6 -72 -18 -116z m114 111 c12 -10 12 -11
21 -161 7 -125 7 -126 -14 -122 -12 2 -40 14 -62 27 l-41 23 5 60 c3 33 8 71
12 85 12 48 13 55 14 87 1 32 2 32 29 21 15 -7 31 -15 36 -20z m-151 -264 c3
-3 -1 -27 -8 -52 -8 -26 -16 -69 -19 -95 -3 -27 -8 -52 -10 -56 -3 -4 -7 -29
-11 -57 -8 -72 -13 -81 -43 -89 -15 -4 -28 -7 -29 -7 -2 0 -25 -6 -53 -13
l-50 -13 5 30 c3 17 10 39 16 49 5 11 7 19 3 19 -3 0 -2 6 4 13 6 7 13 26 16
42 2 17 5 31 6 33 2 1 3 5 4 10 19 83 53 146 88 160 18 7 40 17 48 22 18 11
25 12 33 4z m178 -83 c1 -9 2 -84 3 -167 l2 -151 -41 13 c-22 6 -60 19 -85 29
-25 9 -51 17 -57 17 -15 2 -16 35 -3 109 5 30 12 72 15 94 3 22 10 63 16 91
l11 51 69 -35 c38 -20 70 -43 70 -51z m428 -91 c-1 -3 3 -15 10 -27 7 -14 13
-90 16 -195 3 -95 7 -184 10 -198 3 -14 7 -79 11 -145 3 -66 8 -136 10 -155
11 -83 11 -84 -16 -84 -28 0 -26 -13 -34 174 -3 69 -8 170 -11 225 -3 55 -7
132 -9 170 -3 39 -8 98 -11 132 -8 67 -1 117 16 111 6 -2 9 -6 8 -8z m-34
-270 c3 -63 8 -128 10 -145 3 -16 7 -110 11 -208 l5 -179 -23 4 c-21 3 -23 8
-24 68 -1 36 -5 110 -8 165 -3 55 -8 154 -11 220 -2 66 -7 154 -11 196 -5 65
-3 78 13 94 17 18 18 17 25 -41 4 -32 9 -111 13 -174z m120 -9 c8 -163 12
-215 20 -281 4 -25 8 -91 10 -147 3 -96 2 -103 -16 -103 -15 0 -19 8 -20 38
-1 20 -3 55 -5 77 -8 87 -14 207 -19 355 -2 85 -7 178 -10 205 l-5 50 19 -24
c15 -20 20 -49 26 -170z m-189 86 c3 -106 13 -297 19 -364 7 -76 8 -233 2
-239 -2 -3 -11 1 -19 9 -10 10 -14 50 -16 153 -2 76 -5 168 -7 204 -14 236
-15 303 -4 316 18 22 22 10 25 -79z m-42 -297 c3 -80 8 -177 11 -217 3 -39 2
-74 -4 -77 -12 -8 -30 16 -30 39 0 11 -2 70 -6 130 -3 61 -7 164 -9 230 -2 66
-7 136 -11 156 -5 28 -3 42 12 58 18 22 18 20 25 -76 4 -54 10 -163 12 -243z
m-543 224 c-5 -27 -15 -78 -21 -114 -16 -89 -17 -93 -28 -133 -6 -20 -8 -38
-6 -40 2 -2 -2 -19 -10 -38 -7 -19 -11 -40 -9 -46 6 -17 -8 -21 -102 -28 -87
-7 -126 -7 -132 -1 -3 2 4 21 15 43 11 21 28 65 37 98 31 104 67 209 86 246
19 38 35 49 72 50 12 0 38 6 57 13 19 7 38 10 43 6 4 -4 3 -29 -2 -56z m114
46 c11 -5 43 -16 70 -26 28 -9 53 -20 57 -23 3 -3 8 -99 10 -214 l3 -207 -40
5 c-22 3 -56 8 -75 10 -19 2 -37 4 -40 5 -10 4 -36 7 -82 8 -46 2 -46 2 -43
35 10 93 17 141 25 163 9 24 19 66 25 109 2 11 4 20 5 20 1 0 3 24 5 53 2 30
6 60 9 67 5 14 31 12 71 -5z m711 -105 c0 -44 4 -102 8 -130 4 -27 9 -86 11
-130 2 -44 7 -115 10 -157 4 -66 3 -78 -10 -78 -8 0 -15 6 -16 13 0 6 -2 57
-4 112 -2 55 -6 116 -9 135 -3 19 -7 73 -10 120 -3 47 -8 121 -11 165 -7 79
-6 80 11 55 14 -18 19 -45 20 -105z m-1299 61 l23 -23 -63 -18 c-34 -9 -67
-21 -73 -26 -6 -5 -14 -6 -17 -2 -4 3 -7 1 -7 -5 0 -7 -7 -12 -15 -12 -8 0
-19 -9 -25 -20 -6 -11 -8 -20 -5 -20 3 0 -1 -12 -9 -27 -13 -25 -66 -73 -81
-73 -4 0 -27 -14 -53 -32 -26 -18 -47 -31 -47 -29 0 2 -20 -6 -45 -19 l-45
-22 30 31 c25 27 121 108 189 161 10 8 33 26 50 40 17 14 43 32 57 39 15 7 44
28 65 47 22 18 41 34 44 34 3 0 15 -11 27 -24z m1358 -187 c3 -74 10 -147 15
-164 5 -16 9 -48 9 -70 0 -22 1 -62 2 -90 1 -27 -1 -49 -5 -48 -27 7 -30 15
-33 94 -4 109 -8 173 -18 284 -8 82 -9 114 -6 146 1 6 7 4 15 -4 11 -10 16
-52 21 -148z m-185 -409 c0 -5 -5 -10 -11 -10 -5 0 -7 5 -4 10 3 6 8 10 11 10
2 0 4 -4 4 -10z m0 -41 c0 -11 -4 -18 -10 -14 -5 3 -7 12 -3 20 7 21 13 19 13
-6z m0 -50 c0 -11 -4 -18 -10 -14 -5 3 -7 12 -3 20 7 21 13 19 13 -6z m116 -9
c0 -12 -4 -16 -9 -11 -5 5 -6 14 -3 20 10 15 12 14 12 -9z"/>
</g>
</svg>
